<?xml version="1.0" encoding="utf-8"?>
<!-- Generator: Adobe Illustrator 22.0.1, SVG Export Plug-In . SVG Version: 6.00 Build 0)  -->
<svg version="1.1" id="Camada_1" xmlns="http://www.w3.org/2000/svg" xmlns:xlink="http://www.w3.org/1999/xlink" x="0px" y="0px"
	 viewBox="0 0 60 73" style="enable-background:new 0 0 60 73;" xml:space="preserve">
<style type="text/css">
	.st0{fill:#005EB9;}
	.st1{fill:#00347F;}
	.st2{fill:#F2A620;}
	.st3{fill:#005EB9;stroke:#000000;stroke-width:0.1;stroke-miterlimit:10;}
	.st4{font-family:'SuiGeneris-BoldItalic';}
	.st5{font-size:8.2096px;}
</style>
<title></title>
<desc></desc>
<circle id="Oval" class="st0" cx="30" cy="31" r="30"/>
<g>
	<path class="st1" d="M4.9,22.7c0,0.3,0.1,0.5,0.3,0.8c0.1,0.2,0.3,0.4,0.3,0.6c0,0.3,0.2,0.4,0.5,0.5c0.3,0.1,0.5,0.2,0.6,0.6
		c0.1,0.3,0.2,0.4,0.5,0.3c0.6-0.2,1.2-0.5,1.8-0.7c0,0.1,0,0.2,0,0.3c0,0.4-0.1,0.8-0.1,1.2c0,0.4,0.3,0.7,0.7,0.7
		c0.8,0,1.5,0,2.3,0c0.4,0,0.7-0.2,1-0.4c0,0,0.1-0.1,0.1-0.1c0.5,0.1,0.7-0.2,1-0.5c0.3-0.3,0.7-0.5,1.1-0.5c0.3,0,0.6-0.1,0.9-0.1
		c0,0,0,0.1,0.1,0.1c0.2,0.3,0.2,0.5,0,0.8c-0.1,0.2,0,0.4-0.1,0.6c0,0.2,0,0.3,0,0.5c-0.1,0.2-0.1,0.4,0,0.6c0.3,0.6,0.7,1,1.1,1.4
		c0.3,0.2,0.5,0.3,0.9,0.2c0.1,0,0.2,0,0.3,0.1c0.1,0.1,0.2,0.2,0.4,0.3c0.2,0.1,0.3,0.2,0.5,0.3c0.2,0.2,0.4,0.3,0.7,0.3
		c0.2,0,0.3,0,0.4,0.2c0.1,0.4,0.4,0.6,0.8,0.5c0.1,0,0.3,0,0.4,0.1c0.3,0.1,0.6,0.3,0.8,0.4c0.2,0.1,0.3,0.2,0.3,0.4
		c0,0.3,0.1,0.5,0.1,0.8c0,0.4,0,0.7-0.3,1c0,0-0.1,0.1-0.1,0.2c0,0.3,0.1,0.6,0.3,0.8c0.4,0.3,0.9,0.6,1.4,0.6c0.2,0,0.5,0,0.7,0
		c0.3,0,0.4,0.2,0.3,0.5c0,0.1,0,0.2-0.1,0.2c-0.3,0.6-0.1,1,0.5,1.2c0.1,0,0.3,0.2,0.3,0.3c0,0.5,0.2,1-0.2,1.5
		c0,0-0.1,0.1-0.1,0.2c0,0.1-0.1,0.3,0,0.4c0.1,0.1,0.1,0.2,0,0.3c-0.2,0.2-0.3,0.5-0.3,0.8c0,0.6-0.1,1.2-0.2,1.8
		c0,0.3,0,0.6,0,0.9c0,0.3,0.2,0.5,0.4,0.5c0.3,0.1,0.7,0.1,1.1,0.1c0.9,0,1.6,0.8,1.5,1.8c0,0.2,0,0.5,0,0.8c0,0.3,0.1,0.4,0.4,0.3
		c0.2,0,0.3-0.1,0.5-0.1c0.4,0,0.6,0.2,0.6,0.6c0,0.4-0.1,0.8-0.3,1.2c-0.2,0.4-0.2,0.4,0.2,0.7c0.4,0.3,0.5,0.6,0.5,1.1
		c0,0.3-0.1,0.6-0.1,0.9c0,0.5-0.3,0.7-0.7,0.8c-0.9,0.3-1.7,0.9-2.4,1.5c-0.4,0.4-0.8,0.8-1.2,1.3c-0.2,0.2-0.2,0.4-0.1,0.7
		c0,0.1,0.1,0.2,0.2,0.2c0.3,0.4,0.6,0.7,0.5,1.2c0,0.2,0.1,0.3,0.3,0.3c0.1,0,0.2-0.1,0.3-0.1c0.2-0.1,0.3-0.1,0.5,0.1
		c0.5,0.6,1,1.1,1.5,1.5c0.3,0.2,0.5,0.4,0.5,0.7c0,0.3,0.2,0.3,0.4,0.3c0.2,0,0.4-0.1,0.6-0.1c0.1,0.3,0.3,0.3,0.5,0.1
		c0.1-0.1,0.2-0.2,0.2-0.3c0.1-0.5,0.4-1,0.8-1.3c0.4-0.4,0.7-0.8,1.1-1.2c0,0,0.1,0,0.1,0.1c0.3,0.3,0.6,0.3,0.8-0.1
		c0.1-0.2,0.3-0.4,0.4-0.7c0.2-0.4,0.5-0.7,0.8-0.9c0.2-0.2,0.5-0.4,0.6-0.7c0.3-0.4,0.4-0.9,0.4-1.4C36,52.8,36,52.4,36,52
		c0-0.2,0-0.3,0.1-0.5c0.1-0.5,0.5-0.9,0.5-1.5c0.1,0.1,0.2,0.1,0.3,0.2c0.2,0.1,0.3,0,0.4-0.1c0.2-0.4,0.5-0.6,0.9-0.7
		c0.3-0.1,0.6-0.2,0.8-0.5c0.3-0.2,0.6-0.5,1-0.5c0.6,0,1.2-0.1,1.7-0.6c0.4-0.4,0.8-0.5,1.3-0.2c0.3,0.2,0.7,0.2,1,0.2
		c0.7-0.1,1.3-0.4,1.9-0.8c0.4-0.3,0.8-0.7,1.1-1.2c0.2-0.3,0.4-0.6,0.7-0.7c0.1,0,0.2-0.1,0.3-0.2c0.5-0.5,0.9-1.1,1.3-1.7
		c0.2-0.3,0.1-0.6,0.1-1c0-0.3,0-0.6,0.3-0.8c0.5-0.3,0.7-0.8,0.9-1.3c0.1-0.2,0.1-0.4,0.1-0.6c0,0,0.1-0.1,0.1-0.1
		c0-0.1,0.1-0.3,0.1-0.4c0.1-0.4,0.2-0.8,0.2-1.2c0.1-0.5,0.2-1,0.2-1.5c0.1-0.5,0.1-0.9,0.2-1.4c0.1-0.3,0.2-0.6,0.6-0.7
		c1.1-0.4,1.8-1.1,2.2-2.2c0.2-0.5,0.5-0.8,1-0.9c0.6-0.1,1.1-0.3,1.5-0.8c0.1-0.2,0.2-0.3,0.3-0.5c0.3-0.3,0.6-0.6,0.9-0.9
		c0.7-0.7,1-1.6,0.8-2.6c-0.1-0.3-0.1-0.7-0.2-1.1c0-0.3,0-0.6-0.1-0.9c-0.2-0.6-0.5-1.1-1.2-1.2c-0.2,0-0.4-0.1-0.6-0.1
		c-0.4-0.1-0.8-0.3-1.1-0.6c-0.5-0.6-0.9-1.2-1.3-1.8c-0.3-0.4-0.5-0.8-1.1-0.9c-0.1,0-0.2-0.1-0.2-0.2c-0.2-0.4-0.6-0.6-1-0.7
		c-0.2,0-0.5,0-0.7,0c-0.6,0.2-1.2,0-1.8-0.2c-0.2-0.1-0.5-0.2-0.6-0.4c-0.2-0.2-0.5-0.3-0.7-0.4c-0.5-0.1-1,0.1-1.5,0.3
		c-0.2,0.1-0.5,0.2-0.8,0.3c0.1-0.5,0.2-1,0.4-1.4c0.1-0.2,0-0.3-0.2-0.4c-0.3-0.2-0.7-0.3-1-0.5c-0.2-0.1-0.3-0.3-0.5-0.4
		c-0.6-0.4-1.3-0.6-2-0.7c-0.8-0.2-1.5,0-2.2,0.5c-0.3,0.3-0.7,0.5-1,0.7c-0.1-0.2-0.3-0.5-0.4-0.6c0.1,0,0.2,0,0.4-0.1
		c0.2-0.1,0.5-0.2,0.7-0.3c0.3-0.3,0.7-0.5,1-0.9c0.2-0.2,0.1-0.3-0.1-0.5c-0.7-0.3-1.4-0.5-2.1-0.5c-0.3,0-0.6,0.1-0.9,0.3
		c-0.3,0.2-0.5,0.4-0.8,0.5c-0.2,0.1-0.5,0.3-0.8,0.2c0.1-0.2,0.2-0.4,0.3-0.6c0.5-0.7,1.2-1.3,2-1.7c0.2-0.1,0.4-0.3,0.4-0.6
		c0-0.2,0-0.3,0.2-0.5c0.1-0.1,0.2-0.2,0.4-0.3c-0.2-0.1-0.2-0.2-0.4-0.2c-0.2-0.1-0.5-0.1-0.7-0.2c-0.1-0.1-0.3-0.2-0.3-0.3
		c-0.1-0.3,0-0.6-0.1-0.8c-0.1-0.6-0.3-1.3-0.5-1.9C37.1,6.9,37,7,36.8,7.2c-0.2,0.2-0.3,0.3-0.5,0.5c-0.1,0.1-0.1,0.2-0.1,0.3
		c0,0.3,0,0.4-0.3,0.5c-0.3,0.1-0.5,0.3-0.6,0.5c-0.1,0.2-0.2,0.3-0.4,0.3c-0.5,0.1-1,0.1-1.6,0c-0.4-0.1-0.8-0.2-1-0.5
		c0-0.1-0.2-0.1-0.2-0.2c-0.3-0.1-0.7-0.1-1-0.2c-0.2,0-0.4,0-0.5,0.2c-0.2,0.4-0.8,0.8-1.5,0.6c-0.4-0.2-0.8-0.1-1.3,0
		c-0.4,0.1-0.8,0.2-1.2,0.3c-0.3,0.1-0.6,0-0.8-0.2c-0.5-0.5-0.8-1-0.9-1.7c-0.1-0.6,0.2-1.1,0.4-1.5c0.3-0.5,0.3-0.5-0.1-0.9
		c-0.2-0.2-0.3-0.3-0.2-0.6c0-0.1,0.1-0.2,0.1-0.3c0-0.1-0.1-0.3-0.2-0.3c-0.3-0.1-0.5-0.1-0.7,0.2c-0.3,0.4-0.5,0.8-1.1,0.9
		c-0.4,0.1-0.8,0.1-1.1,0.1c-0.1,0-0.2,0-0.3,0c-0.3,0-0.4,0.2-0.6,0.4C21,6.3,20.9,6.3,20.5,6c0,0-0.1-0.1-0.1-0.1
		c-0.3-0.2-0.6-0.3-0.9-0.5c-0.1,0-0.3,0-0.3,0.1c-0.2,0.3-0.2,0.6-0.1,1c0.1,0.4,0.3,0.8,0.8,1c0.4,0.2,0.4,0.7,0,0.9
		c-0.1,0.1-0.3,0.1-0.4,0.2c-0.8,0.5-1.6,0.9-2.4,1.4c-0.2,0.1-0.3,0.1-0.5,0C16.3,9.8,16,9.8,15.8,10c0,0-0.1,0-0.2,0
		c-0.4-0.2-0.7-0.5-0.7-1c-0.1-0.4-0.3-0.7-0.7-0.8c-0.3-0.1-0.6,0-0.8,0.1c-0.4,0.1-0.8,0.1-1.2,0.1c-0.3,0-0.6,0-0.9,0
		c-0.2,0-0.3,0.2-0.3,0.4c0,0.2,0.1,0.3,0.3,0.4c0.1,0.1,0.3,0.1,0.4,0.2c0.1,0.1,0.2,0.2,0.2,0.3c0,0.1-0.1,0.2-0.2,0.2
		C11.3,10,11.2,10,11,10c-0.5,0-0.8,0.4-0.6,0.9c0.1,0.3,0.3,0.6,0.6,0.9c0.4,0.5,0.5,1,0.1,1.5c-0.2,0.3-0.4,0.6-0.3,1
		c0,0.1,0,0.2-0.1,0.3c-0.2,0.3-0.3,0.7-0.3,1.1c0,0.1,0,0.2-0.1,0.3c-0.1,0.2-0.2,0.4-0.2,0.6c0,0.5-0.3,0.7-0.7,0.5
		C9,17,8.6,17.1,8.2,17.3c-0.1,0.1-0.3,0.1-0.5,0.1c-0.2,0-0.4,0-0.6-0.1c0,0.3-0.2,0.4-0.5,0.4c-0.1,0-0.1,0-0.2,0.1
		c-0.7,0.5-1,1.3-1.2,2.1c-0.1,0.2-0.1,0.4-0.3,0.6c-0.2,0.1-0.3,0.3-0.4,0.4c-0.3,0.4-0.3,0.7,0,1.2C4.8,22.2,4.9,22.4,4.9,22.7z"
		/>
</g>
<path class="st2" d="M42.4,25.1c0-6.7-5.4-12.1-12-12.1c-6.6,0-12,5.4-12,12.1c0,1.8,0.4,3.6,1.1,5.1C22.4,37,30.5,49,30.5,49
	s9.3-14.6,11.2-19.7h0C42.2,28,42.4,26.6,42.4,25.1z M30.4,32c-3.9,0-7-3.1-7-7s3.1-7,7-7c3.9,0,7,3.1,7,7S34.3,32,30.4,32z"/>
<text id="XMLID_1_" transform="matrix(1 0 0 1 0.958 69.2354)" class="st3 st4 st5">Ponto Digital</text>
<rect x="62.3" y="76.3" style="fill:none;" width="6.7" height="1.6"/>
</svg>
